<svg width="48" height="48" viewBox="0 0 48 48" fill="none" xmlns="http://www.w3.org/2000/svg">
<path d="M18.2 2.25H29.8C32.4644 2.25 34.4476 2.25019 36.0192 2.3786C37.5879 2.50677 38.7244 2.76142 39.6994 3.25819C41.4399 4.14502 42.855 5.56009 43.7418 7.30059C44.2386 8.27555 44.4932 9.41209 44.6214 10.9808C44.7498 12.5524 44.75 14.5356 44.75 17.2V28.8C44.75 31.4644 44.7498 33.4476 44.6214 35.0192C44.4932 36.5879 44.2386 37.7244 43.7418 38.6994C42.855 40.4399 41.4399 41.855 39.6994 42.7418C38.7244 43.2386 37.5879 43.4932 36.0192 43.6214C34.4476 43.7498 32.4644 43.75 29.8 43.75H18.2C15.5356 43.75 13.5524 43.7498 11.9808 43.6214C10.4121 43.4932 9.27555 43.2386 8.30059 42.7418C6.56009 41.855 5.14502 40.4399 4.25819 38.6994C3.76142 37.7244 3.50677 36.5879 3.3786 35.0192C3.25019 33.4476 3.25 31.4644 3.25 28.8V17.2C3.25 14.5356 3.25019 12.5524 3.3786 10.9808C3.50677 9.41209 3.76142 8.27555 4.25819 7.30059C5.14502 5.56009 6.56009 4.14502 8.30059 3.25819C9.27555 2.76142 10.4121 2.50677 11.9808 2.3786C13.5524 2.25019 15.5356 2.25 18.2 2.25Z" fill="black" stroke="white" stroke-width="0.5"/>
<path d="M12 32.6935V13.8119C12 13.6835 12.0527 13.6101 12.1755 13.6101C13.9894 13.6101 15.8024 13.5 17.6167 13.5C20.5607 13.5 23.7484 14.526 24.8658 17.6653C25.1291 18.436 25.2695 19.225 25.2695 20.0508C25.2695 21.6288 24.9184 22.9316 24.2164 23.9592C22.2551 26.8296 18.8559 26.785 15.8088 26.785V32.6752C15.8327 32.8495 15.6869 32.9321 15.5456 32.9321H12.2106C12.0702 32.9321 12 32.8587 12 32.6935ZM15.8264 17.1515V23.317C17.0346 23.4072 18.2988 23.417 19.4597 23.0234C20.7413 22.6466 21.4431 21.5158 21.4431 20.1608C21.4787 19.0063 20.8615 17.8985 19.8107 17.4818C18.6639 16.9958 17.0644 16.9667 15.8264 17.1515Z" fill="white"/>
<path d="M27.6488 18.3179H30.7291C30.8989 18.3194 31.0514 18.4421 31.0964 18.6133C31.3222 19.1373 31.35 19.7692 31.3508 20.3349C31.879 19.6919 32.516 19.1561 33.2299 18.7544C33.9957 18.3014 34.8637 18.0719 35.7434 18.0897C35.8894 18.0679 36.0186 18.203 35.9978 18.3556V21.9302C35.9978 22.0682 35.9032 22.137 35.7152 22.137C34.4114 22.043 32.3816 22.365 31.4342 23.4369V32.7315C31.4342 32.9088 31.3588 32.9974 31.2081 32.9974H27.9032C27.7408 33.0218 27.5976 32.869 27.6205 32.702V22.6097C27.6205 21.2573 27.6486 19.8643 27.451 18.5247C27.4206 18.4015 27.5335 18.2868 27.6488 18.3179Z" fill="white"/>
</svg>
