<svg width="48" height="48" viewBox="0 0 48 48" fill="none" xmlns="http://www.w3.org/2000/svg">
<path d="M18.2 3.25H29.8C32.4644 3.25 34.4476 3.25019 36.0192 3.3786C37.5879 3.50677 38.7244 3.76142 39.6994 4.25819C41.4399 5.14502 42.855 6.56009 43.7418 8.30059C44.2386 9.27555 44.4932 10.4121 44.6214 11.9808C44.7498 13.5524 44.75 15.5356 44.75 18.2V29.8C44.75 32.4644 44.7498 34.4476 44.6214 36.0192C44.4932 37.5879 44.2386 38.7244 43.7418 39.6994C42.855 41.4399 41.4399 42.855 39.6994 43.7418C38.7244 44.2386 37.5879 44.4932 36.0192 44.6214C34.4476 44.7498 32.4644 44.75 29.8 44.75H18.2C15.5356 44.75 13.5524 44.7498 11.9808 44.6214C10.4121 44.4932 9.27555 44.2386 8.30059 43.7418C6.56009 42.855 5.14502 41.4399 4.25819 39.6994C3.76142 38.7244 3.50677 37.5879 3.3786 36.0192C3.25019 34.4476 3.25 32.4644 3.25 29.8V18.2C3.25 15.5356 3.25019 13.5524 3.3786 11.9808C3.50677 10.4121 3.76142 9.27555 4.25819 8.30059C5.14502 6.56009 6.56009 5.14502 8.30059 4.25819C9.27555 3.76142 10.4121 3.50677 11.9808 3.3786C13.5524 3.25019 15.5356 3.25 18.2 3.25Z" fill="black" stroke="white" stroke-width="0.5"/>
<path d="M23.3526 29.3944H16.8442L15.52 33.6134C15.4832 33.7702 15.3389 33.8812 15.1819 33.8735H11.8854C11.6974 33.8735 11.6317 33.7676 11.6882 33.5556L17.3231 16.9107C17.3795 16.7374 17.4359 16.5399 17.4922 16.3183C17.5659 15.9328 17.6037 15.5409 17.6049 15.148C17.5888 15.0319 17.6908 14.9294 17.8022 14.9457H22.2819C22.4132 14.9457 22.4883 14.9939 22.5073 15.0902L28.9031 33.5845C28.9594 33.7773 28.9031 33.8737 28.734 33.8735H25.0712C24.9428 33.8881 24.8201 33.8 24.7895 33.6712L23.3526 29.3944ZM17.8585 25.7533H22.3101C21.5787 23.2541 20.7533 20.7876 20.0843 18.2689C19.3625 20.7919 18.575 23.3047 17.8585 25.7533Z" fill="white"/>
<path d="M32.7064 18.0087C32.419 18.0206 32.1324 17.9701 31.8654 17.8605C31.5984 17.751 31.3569 17.5848 31.1568 17.373C30.9572 17.152 30.8021 16.8927 30.7006 16.61C30.599 16.3273 30.553 16.0268 30.565 15.7258C30.5548 15.4278 30.6059 15.1309 30.7152 14.8546C30.8244 14.5782 30.9893 14.3286 31.199 14.122C31.4066 13.9176 31.6518 13.7574 31.9202 13.6508C32.1886 13.5441 32.4749 13.4931 32.7627 13.5007C33.4389 13.5007 33.9696 13.7078 34.3546 14.122C34.549 14.3373 34.7 14.5897 34.7991 14.8649C34.8982 15.1401 34.9434 15.4327 34.9322 15.7258C34.9439 16.028 34.8964 16.3295 34.7923 16.6125C34.6883 16.8954 34.5298 17.1541 34.3264 17.373C34.1138 17.5879 33.8601 17.7554 33.5813 17.8648C33.3025 17.9742 33.0046 18.0232 32.7064 18.0087ZM30.7622 33.5844V19.7714C30.7622 19.5981 30.8371 19.5114 30.9877 19.5114H34.4532C34.6033 19.5114 34.6785 19.5981 34.6786 19.7714V33.5844C34.6786 33.7772 34.6035 33.8736 34.4532 33.8734H31.0158C30.8468 33.8734 30.7623 33.7771 30.7622 33.5844Z" fill="white"/>
</svg>
