<svg width="48" height="48" viewBox="0 0 48 48" fill="none" xmlns="http://www.w3.org/2000/svg">
<path d="M18.2 3.25H29.8C32.4644 3.25 34.4476 3.25019 36.0192 3.3786C37.5879 3.50677 38.7244 3.76142 39.6994 4.25819C41.4399 5.14502 42.855 6.56009 43.7418 8.30059C44.2386 9.27555 44.4932 10.4121 44.6214 11.9808C44.7498 13.5524 44.75 15.5356 44.75 18.2V29.8C44.75 32.4644 44.7498 34.4476 44.6214 36.0192C44.4932 37.5879 44.2386 38.7244 43.7418 39.6994C42.855 41.4399 41.4399 42.855 39.6994 43.7418C38.7244 44.2386 37.5879 44.4932 36.0192 44.6214C34.4476 44.7498 32.4644 44.75 29.8 44.75H18.2C15.5356 44.75 13.5524 44.7498 11.9808 44.6214C10.4121 44.4932 9.27555 44.2386 8.30059 43.7418C6.56009 42.855 5.14502 41.4399 4.25819 39.6994C3.76142 38.7244 3.50677 37.5879 3.3786 36.0192C3.25019 34.4476 3.25 32.4644 3.25 29.8V18.2C3.25 15.5356 3.25019 13.5524 3.3786 11.9808C3.50677 10.4121 3.76142 9.27555 4.25819 8.30059C5.14502 6.56009 6.56009 5.14502 8.30059 4.25819C9.27555 3.76142 10.4121 3.50677 11.9808 3.3786C13.5524 3.25019 15.5356 3.25 18.2 3.25Z" fill="black" stroke="white" stroke-width="0.5"/>
<path d="M12 33.7744V15.3051C12 15.1795 12.0525 15.1077 12.175 15.1077C13.9834 15.1077 15.7911 15 17.6 15C20.5352 15 23.7135 16.0036 24.8275 19.0744C25.09 19.8282 25.23 20.6 25.23 21.4077C25.23 22.9513 24.88 24.2256 24.18 25.2308C22.2246 28.0385 18.8355 27.9949 15.7975 27.9949V33.7564C15.8213 33.927 15.6759 34.0077 15.535 34.0077H12.21C12.07 34.0077 12 33.9359 12 33.7744ZM15.815 18.5718V24.6026C17.0196 24.6908 18.2801 24.7004 19.4375 24.3154C20.7152 23.9468 21.415 22.8407 21.415 21.5154C21.4505 20.386 20.8351 19.3024 19.7875 18.8949C18.644 18.4194 17.0493 18.3909 15.815 18.5718Z" fill="white"/>
<path d="M36.145 23.4111C35.6155 23.132 35.0515 22.9279 34.4686 22.8042C33.7194 22.6279 30.7647 22.0106 30.7636 23.5555C30.7898 24.4181 32.159 24.8407 32.7639 25.0871C34.8877 25.8162 37.291 27.1196 37.2438 29.7396C37.3087 33.0012 34.1486 34.3051 31.4397 34.3054C30.0295 34.32 28.5604 34.1016 27.2698 33.4962C27.1466 33.431 27.0673 33.2916 27.0726 33.1495V30.0286C27.0587 29.9034 27.193 29.7941 27.298 29.8841C28.5625 30.6488 30.0614 31.0201 31.5242 31.04C32.17 31.04 33.4499 30.9774 33.4402 30.0286C33.4402 29.118 31.9091 28.6994 31.2988 28.4681C30.4142 28.1523 29.5753 27.7148 28.8053 27.1677C27.7293 26.4002 27.0542 25.1695 27.0726 23.8156C27.0663 20.7445 29.9752 19.3661 32.5949 19.3654C33.8196 19.3553 35.1347 19.446 36.2748 19.9434C36.4387 19.9916 36.4727 20.1643 36.472 20.319V23.2377C36.4824 23.4188 36.2812 23.4805 36.145 23.4111Z" fill="white"/>
</svg>
