<svg width="48" height="48" viewBox="0 0 48 48" fill="none" xmlns="http://www.w3.org/2000/svg">
<path d="M18.2 3.25H29.8C32.4644 3.25 34.4476 3.25019 36.0192 3.3786C37.5879 3.50677 38.7244 3.76142 39.6994 4.25819C41.4399 5.14502 42.855 6.56009 43.7418 8.30059C44.2386 9.27555 44.4932 10.4121 44.6214 11.9808C44.7498 13.5524 44.75 15.5356 44.75 18.2V29.8C44.75 32.4644 44.7498 34.4476 44.6214 36.0192C44.4932 37.5879 44.2386 38.7244 43.7418 39.6994C42.855 41.4399 41.4399 42.855 39.6994 43.7418C38.7244 44.2386 37.5879 44.4932 36.0192 44.6214C34.4476 44.7498 32.4644 44.75 29.8 44.75H18.2C15.5356 44.75 13.5524 44.7498 11.9808 44.6214C10.4121 44.4932 9.27555 44.2386 8.30059 43.7418C6.56009 42.855 5.14502 41.4399 4.25819 39.6994C3.76142 38.7244 3.50677 37.5879 3.3786 36.0192C3.25019 34.4476 3.25 32.4644 3.25 29.8V18.2C3.25 15.5356 3.25019 13.5524 3.3786 11.9808C3.50677 10.4121 3.76142 9.27555 4.25819 8.30059C5.14502 6.56009 6.56009 5.14502 8.30059 4.25819C9.27555 3.76142 10.4121 3.50677 11.9808 3.3786C13.5524 3.25019 15.5356 3.25 18.2 3.25Z" fill="black" stroke="white" stroke-width="0.5"/>
<path d="M20.684 28.3458H14.1756L12.8514 32.5729C12.8146 32.7296 12.6703 32.8406 12.5133 32.8329H9.21681C9.02882 32.8329 8.96308 32.727 9.01959 32.5151L14.6545 15.9389C14.7109 15.7656 14.7672 15.5961 14.8236 15.3744C14.8973 14.9888 14.9351 14.597 14.9363 14.2041C14.9202 14.088 15.0204 13.9852 15.1336 14.0018H19.6133C19.7446 14.0018 19.8197 14.0499 19.8387 14.1463L26.2345 32.544C26.2908 32.7368 26.2345 32.8331 26.0654 32.8329H22.4026C22.2742 32.8475 22.1515 32.7595 22.1209 32.6307L20.684 28.3458ZM15.1899 24.7816H19.6415C18.9101 22.2823 18.0847 19.8159 17.4157 17.2971C16.6576 19.9099 15.9576 22.333 15.1899 24.7816Z" fill="white"/>
<path d="M30.9912 26.7135C31.2502 28.8599 33.0526 29.8832 35.0484 29.8396C36.1738 29.8175 37.3766 29.6428 38.4281 29.2172C38.5219 29.1405 38.569 29.1883 38.569 29.3617V32.107C38.5779 32.2498 38.5182 32.3774 38.3999 32.4537C37.093 33.0475 35.5925 33.2265 34.175 33.2038C29.9483 33.2038 27.0455 30.2257 27.0467 25.8927C27.0357 21.7866 29.6995 18.3225 33.8369 18.3225C37.344 18.2316 39.772 21.0396 39.7818 24.5346C39.7818 25.1712 39.7463 25.8099 39.6691 26.4418C39.6542 26.572 39.5433 26.673 39.4155 26.673C36.6145 26.673 33.7999 26.7135 30.9912 26.7135ZM30.9912 24.0811C32.5522 24.0811 34.1223 24.1362 35.6823 24.0666C35.9168 24.0426 36.0909 23.9982 36.0909 23.7543C36.0584 22.4586 34.9649 21.393 33.6961 21.4425C32.1629 21.3475 31.1818 22.6416 30.9912 24.0811Z" fill="white"/>
</svg>
