<svg height="512pt" viewBox="0 -48 512 512" width="512pt" xmlns="http://www.w3.org/2000/svg"><path d="m264.230469 162.28125-80-48c-4.941407-2.96875-11.097657-3.042969-16.113281-.203125-5.015626 2.839844-8.117188 8.15625-8.117188 13.921875v96c0 5.765625 3.101562 11.082031 8.117188 13.921875 5.015624 2.839844 11.171874 2.765625 16.113281-.203125l80-48c4.820312-2.890625 7.769531-8.097656 7.769531-13.71875s-2.949219-10.828125-7.769531-13.71875zm-72.230469 33.460938v-39.484376l32.902344 19.742188zm0 0"/><path d="m496 320h-96v-240c-.046875-44.164062-35.835938-79.953125-80-80h-304c-8.835938 0-16 7.164062-16 16v320c0 8.835938 7.164062 16 16 16h113.601562c7.570313 37.285156 40.351563 64.082031 78.398438 64.082031s70.828125-26.796875 78.398438-64.082031h209.601562c8.835938 0 16-7.164062 16-16s-7.164062-16-16-16zm-209.601562-.070312c0-.152344-.078126-.296876-.109376-.449219-.480468-2.296875-1.074218-4.550781-1.746093-6.769531-.09375-.320313-.199219-.640626-.304688-.957032-.207031-.65625-.460937-1.28125-.6875-1.921875-.480469-1.367187-.957031-2.726562-1.503906-4.0625-.253906-.632812-.527344-1.257812-.800781-1.882812-.269532-.621094-.550782-1.207031-.796875-1.808594-.472657-1-.953125-1.980469-1.464844-2.957031-.511719-.976563-.960937-1.785156-1.464844-2.65625v-.058594c-.261719-.460938-.496093-.949219-.800781-1.414062-.453125-.761719-.957031-1.472657-1.429688-2.214844-.472656-.746094-1.097656-1.6875-1.679687-2.511719-.425781-.609375-.800781-1.226563-1.28125-1.816406-.105469-.144531-.191406-.304688-.296875-.449219h31.96875v32h-17.601562zm33.601562-63.929688h-288v-160h336v160zm17.097656-220.800781c.972656.375 1.941406.800781 2.894532 1.214843.601562.28125 1.191406.5625 1.785156.867188.941406.480469 1.855468 1 2.757812 1.542969.542969.320312 1.089844.632812 1.601563.976562.96875.632813 1.894531 1.3125 2.816406 2.015625.40625.304688.839844.589844 1.230469.917969 2.597656 2.105469 4.96875 4.476563 7.074218 7.074219.328126.390625.613282.800781.917969 1.230468.703125.921876 1.382813 1.847657 2.015625 2.816407.34375.519531.65625 1.066406.976563 1.601562.542969.902344 1.0625 1.816407 1.542969 2.757813.304687.59375.585937 1.183594.863281 1.785156.433593.953125.800781 1.921875 1.21875 2.894531.136719.371094.269531.730469.398437 1.097657h-29.191406v-29.191407zm-33.097656 28.800781h-48v-32h48zm-80 0h-48v-32h48zm-80 0h-48v-32h48zm-112-32h32v32h-32zm0 256h32v32h-32zm64 0h48c-.105469.144531-.191406.304688-.296875.449219-.4375.589843-.855469 1.207031-1.277344 1.816406-.585937.796875-1.136719 1.664063-1.683593 2.511719-.542969.847656-.972657 1.453125-1.429688 2.214844-.28125.464843-.511719.953124-.800781 1.414062v.058594c-.503907.871094-.992188 1.75-1.464844 2.65625-.472656.902344-.992187 1.957031-1.460937 2.957031-.289063.601563-.570313 1.203125-.800782 1.808594-.234375.609375-.554687 1.25-.800781 1.882812-.542969 1.335938-1.023437 2.695313-1.503906 4.0625-.222657.640625-.488281 1.265625-.6875 1.921875-.105469.316406-.207031.636719-.304688.957032-.671875 2.21875-1.265625 4.472656-1.746093 6.769531 0 .152343-.078126.296875-.109376.449219v.070312h-33.632812zm112 96c-26.507812 0-48-21.492188-48-48s21.492188-48 48-48 48 21.492188 48 48c-.027344 26.5-21.5 47.972656-48 48zm128-96h32v32h-32zm0 0"/></svg>