<svg id="Layer_1" enable-background="new 0 0 500 500" viewBox="0 0 500 500" xmlns="http://www.w3.org/2000/svg"><path clip-rule="evenodd" d="m228.861 396.945v-69.729l52.021 34.865zm158.105-34.886v-23.545c0-3.613-2.924-6.548-6.509-6.548-3.641 0-6.565 2.935-6.565 6.548v17.019h-79.273l-68.681-46.03c-4.314-2.901-10.206.237-10.206 5.45v40.58h-74.639v-17.019c0-3.613-2.979-6.548-6.565-6.548-3.641 0-6.565 2.935-6.565 6.548v47.134c0 3.619 2.924 6.548 6.565 6.548 3.586 0 6.565-2.929 6.565-6.548v-17.019h74.639v40.585c0 5.149 5.807 8.364 10.206 5.439l68.681-46.025h79.273v17.019c0 3.619 2.924 6.548 6.565 6.548 3.586 0 6.509-2.929 6.509-6.548zm32.438-103.966h-119.544l58.366-58.343h52.187c4.965 0 8.992 4.032 8.992 8.986v49.357zm-8.992 194.884c4.965 0 8.992-4.033 8.992-8.987v-172.8h-323.878v172.801c0 4.954 4.027 8.987 8.992 8.987h305.894zm-314.886-253.227h119.544l-58.31 58.343h-61.234zm-13.792-69.045c1.214-2.085 3.144-3.58 5.461-4.198l106.801-28.609-41.264 71.445-59.082 15.843-12.799-47.674c-.606-2.3-.33-4.722.883-6.807zm300.93-83.373c4.796-1.267 9.758 1.55 11.033 6.355l10.426 38.986c1.341 4.847-1.611 9.746-6.344 11.011l-106.801 28.609 41.264-71.451zm-212.058 117.217 102.498-27.456 41.264-71.456-102.498 27.467zm4.634 93.544h106.139l58.31-58.343h-106.083zm235.172-71.439h-271.691l262.479-70.32c11.75-3.15 18.756-15.287 15.612-27.048l-10.482-38.986c-3.145-11.767-15.281-18.773-27.031-15.617l-295.468 79.18c-11.751 3.15-18.757 15.281-15.612 27.037l14.233 53.169v249.923c0 12.175 9.874 22.083 22.066 22.083h305.894c12.192 0 22.121-9.908 22.121-22.083v-235.256c0-12.175-9.93-22.082-22.121-22.082z" fill-rule="evenodd"/></svg>