<svg width="64" height="66" viewBox="0 0 64 66" fill="none" xmlns="http://www.w3.org/2000/svg">
<path d="M59.6 24.5H12.5L59.6 14.1C60.2 14 60.7 13.6 61.1 13.1C61.4 12.6 61.6 11.9 61.4 11.3L59.4 2.09997C59.1 0.799972 57.8 -2.34097e-05 56.6 0.299977L1.90003 12.4C0.600028 12.7 -0.199975 14 0.100025 15.2L2.40003 25.6V62.5C2.40003 64.4 4.00003 66 5.90003 66H59.7C61.6 66 63.2 64.4 63.2 62.5V28C63.1 26 61.5 24.5 59.6 24.5ZM61.1 28V35H41.5L50 26.5H59.7C60.4 26.5 61.1 27.1 61.1 28ZM4.30003 35V26.5H25.7L17.2 35H4.30003ZM28.5 26.5H47.1L38.6 35H20L28.5 26.5ZM16.4 21.6L23.8 9.59997L43.6 5.19997L36.2 17.2L16.4 21.6ZM57 2.19997C57.1 2.19997 57.2 2.19997 57.3 2.19997C57.3 2.19997 57.4 2.29998 57.5 2.39998L59.5 11.6C59.5 11.7 59.5 11.8 59.5 11.9C59.5 11.9 59.4 12 59.3 12.1L39.1 16.6L46.5 4.59997L57 2.19997ZM2.30003 14.3L21.1 10.1L13.7 22.1L4.10003 24.2L2.00003 14.7C2.00003 14.6 2.10003 14.4 2.30003 14.3ZM59.6 64H5.80003C5.00003 64 4.30003 63.3 4.30003 62.5V37H61.1V62.5C61.1 63.3 60.4 64 59.6 64Z" fill="#4770FF"/>
<path d="M54.5 45.8999C53.9 45.8999 53.5 46.2999 53.5 46.8999V49.3H39C38.8 48.8 38.5 48.3999 38 48.1999L29.1 43C28.3 42.6 27.4 42.6 26.6 43C25.8 43.4 25.4 44.2 25.4 45.1V49.8H11.2V46.8C11.2 46.2 10.8 45.8 10.2 45.8C9.60001 45.8 9.20001 46.2 9.20001 46.8V54.1999C9.20001 54.7999 9.60001 55.1999 10.2 55.1999C10.8 55.1999 11.2 54.7999 11.2 54.1999V51.8H25.4V55.3999C25.4 56.2999 25.9 57.1 26.6 57.5C27 57.7 27.4 57.8 27.8 57.8C28.2 57.8 28.6 57.7 29 57.5L37.9 52.3C38.4 52 38.7 51.5999 38.9 51.1999H53.4V54.1999C53.4 54.7999 53.8 55.1999 54.4 55.1999C55 55.1999 55.4 54.7999 55.4 54.1999V46.8C55.5 46.3 55.1 45.8999 54.5 45.8999ZM37.1 50.6999L28.2 55.8999C28 55.9999 27.8 55.8999 27.7 55.8999C27.6 55.8999 27.5 55.7 27.5 55.5V45.1999C27.5 44.9999 27.6 44.9 27.7 44.8C27.8 44.8 27.8 44.6999 27.9 44.6999C28 44.6999 28 44.7 28.1 44.8L37 50C37.2 50.1 37.2 50.2999 37.2 50.3999C37.2 50.4999 37.3 50.5999 37.1 50.6999Z" fill="#4770FF"/>
</svg>
