<svg width="48" height="48" viewBox="0 0 48 48" fill="none" xmlns="http://www.w3.org/2000/svg">
<path d="M18.2 3.25H29.8C32.4644 3.25 34.4476 3.25019 36.0192 3.3786C37.5879 3.50677 38.7244 3.76142 39.6994 4.25819C41.4399 5.14502 42.855 6.56009 43.7418 8.30059C44.2386 9.27555 44.4932 10.4121 44.6214 11.9808C44.7498 13.5524 44.75 15.5356 44.75 18.2V29.8C44.75 32.4644 44.7498 34.4476 44.6214 36.0192C44.4932 37.5879 44.2386 38.7244 43.7418 39.6994C42.855 41.4399 41.4399 42.855 39.6994 43.7418C38.7244 44.2386 37.5879 44.4932 36.0192 44.6214C34.4476 44.7498 32.4644 44.75 29.8 44.75H18.2C15.5356 44.75 13.5524 44.7498 11.9808 44.6214C10.4121 44.4932 9.27555 44.2386 8.30059 43.7418C6.56009 42.855 5.14502 41.4399 4.25819 39.6994C3.76142 38.7244 3.50677 37.5879 3.3786 36.0192C3.25019 34.4476 3.25 32.4644 3.25 29.8V18.2C3.25 15.5356 3.25019 13.5524 3.3786 11.9808C3.50677 10.4121 3.76142 9.27555 4.25819 8.30059C5.14502 6.56009 6.56009 5.14502 8.30059 4.25819C9.27555 3.76142 10.4121 3.50677 11.9808 3.3786C13.5524 3.25019 15.5356 3.25 18.2 3.25Z" fill="black" stroke="white" stroke-width="0.5"/>
<path fill-rule="evenodd" clip-rule="evenodd" d="M24 24C24 20.6863 26.6863 18 30 18C33.3137 18 36 20.6863 36 24C36 27.3137 33.3137 30 30 30C26.6863 30 24 27.3137 24 24Z" fill="#9C9C9C"/>
<path fill-rule="evenodd" clip-rule="evenodd" d="M12 36C12 32.6863 14.6863 30 18 30H24V36C24 39.3137 21.3137 42 18 42C14.6863 42 12 39.3137 12 36Z" fill="white"/>
<path fill-rule="evenodd" clip-rule="evenodd" d="M24 6V18H30C33.3137 18 36 15.3137 36 12C36 8.68629 33.3137 6 30 6H24Z" fill="#CACACA"/>
<path fill-rule="evenodd" clip-rule="evenodd" d="M12 12C12 15.3137 14.6863 18 18 18H24V6H18C14.6863 6 12 8.68629 12 12Z" fill="white"/>
<path fill-rule="evenodd" clip-rule="evenodd" d="M12 24C12 27.3137 14.6863 30 18 30H24V18H18C14.6863 18 12 20.6863 12 24Z" fill="white"/>
</svg>
