<svg width="65" height="65" viewBox="0 0 65 65" fill="none" xmlns="http://www.w3.org/2000/svg">
<path d="M54.9 43.6C54.3 43.6 53.9 43.2 53.9 42.6V41.5C53.9 40.9 54.3 40.5 54.9 40.5C55.5 40.5 55.9 40.9 55.9 41.5V42.6C55.9 43.2 55.5 43.6 54.9 43.6Z" fill="#4770FF"/>
<path d="M51.7 45.7C51.1 45.7 50.7 45.3 50.7 44.7C50.7 44.1 51.1 43.7 51.7 43.7H52.8C53.4 43.7 53.8 44.1 53.8 44.7C53.8 45.3 53.4 45.7 52.8 45.7H51.7Z" fill="#4770FF"/>
<path d="M54.9 48.9C54.3 48.9 53.9 48.5 53.9 47.9V46.8C53.9 46.2 54.3 45.8 54.9 45.8C55.5 45.8 55.9 46.2 55.9 46.8V47.9C55.9 48.5 55.5 48.9 54.9 48.9Z" fill="#4770FF"/>
<path d="M57 45.7C56.4 45.7 56 45.3 56 44.7C56 44.1 56.4 43.7 57 43.7H58.1C58.7 43.7 59.1 44.1 59.1 44.7C59.1 45.3 58.7 45.7 58.1 45.7H57Z" fill="#4770FF"/>
<path d="M33.6 48.9C33 48.9 32.6 48.5 32.6 47.9V45.8L30.4 45.7C29.8 45.7 29.4 45.3 29.4 44.7C29.4 44.1 29.8 43.7 30.4 43.7H32.5L32.6 41.5C32.6 40.9 33 40.5 33.6 40.5C34.2 40.5 34.6 40.9 34.6 41.5V43.6L36.8 43.7C37.4 43.7 37.8 44.1 37.8 44.7C37.8 45.3 37.4 45.7 36.8 45.7H34.7L34.6 47.9C34.6 48.5 34.1 48.9 33.6 48.9Z" fill="#4770FF"/>
<path d="M41 50C40.4 50 40 49.6 40 49C40 48.4 40.4 48 41 48H42.1C42.7 48 43.1 48.4 43.1 49C43.1 49.6 42.7 50 42.1 50H41Z" fill="#4770FF"/>
<path d="M46.4 50C45.8 50 45.4 49.6 45.4 49C45.4 48.4 45.8 48 46.4 48H47.5C48.1 48 48.5 48.4 48.5 49C48.5 49.6 48.1 50 47.5 50H46.4Z" fill="#4770FF"/>
<path d="M58.7 64.9C56.6 64.9 54.7 63.8 53.7 62L52.2 59.4C51.6 59.5 51.1 59.6 50.5 59.6H36.1L34.7 62C33.7 63.8 31.8 64.9 29.7 64.9C26.7 64.9 24.2 62.6 24 59.6L5.8 59.5C2.9 59.5 0.5 57.1 0.5 54.2V6.20002C0.5 3.30002 2.9 0.900024 5.8 0.900024H50.6C53.5 0.900024 55.9 3.30002 55.9 6.20002V35.1C60.7 35.8 64.3 39.7 64.4 44.5V44.6V59C64.4 61.6 62.6 63.9 60.1 64.5C59.7 64.9 59.2 64.9 58.7 64.9ZM26 59.2C26 60.9 27.1 62.4 28.8 62.8C29.1 62.9 29.4 62.9 29.7 62.9C31 62.9 32.3 62.2 32.9 61L36.9 53.8C37.5 52.8 38.5 52.2 39.6 52.2H48.7C49.8 52.2 50.9 52.8 51.4 53.8L55.4 61C56.1 62.2 57.3 62.9 58.6 62.9C58.9 62.9 59.2 62.9 59.5 62.8C61.1 62.4 62.3 60.9 62.3 59.2V50.5L62.2 50.6C61.5 51.5 60.6 52.3 59.6 52.9C59.4 53 59.3 53.1 59.1 53.1C58.9 53.1 58.8 53.1 58.6 53C58.3 52.8 58.1 52.5 58.1 52.1C58.1 51.7 58.3 51.4 58.6 51.2C60.9 49.9 62.3 47.4 62.4 44.8C62.4 40.6 59.1 37.3 54.9 37.1C51.4 37.1 48.4 39.4 47.5 42.7C47.4 43.1 47 43.5 46.5 43.5C46.4 43.5 46.3 43.5 46.2 43.5C45.7 43.4 45.3 42.8 45.5 42.3C45.7 41.7 45.9 41 46.2 40.4V40.3H41.8V40.4C42.1 41 42.3 41.6 42.5 42.3C42.6 42.6 42.5 42.8 42.4 43.1C42.3 43.3 42 43.5 41.8 43.6C41.7 43.6 41.6 43.6 41.5 43.6C41 43.6 40.6 43.3 40.5 42.8C39.6 39.5 36.6 37.2 33.2 37.2C29 37.3 25.7 40.7 25.7 44.9C25.7 47.5 27.2 50 29.5 51.3C30 51.6 30.1 52.2 29.8 52.7C29.6 53 29.3 53.2 28.9 53.2C28.7 53.2 28.6 53.2 28.4 53.1C27.4 52.5 26.5 51.7 25.8 50.8L25.7 50.7V59.2H26ZM39.7 54.3C39.3 54.3 38.9 54.5 38.7 54.9L37.2 57.6H50.7C50.9 57.6 51.1 57.6 51.2 57.5H51.3L49.8 54.8C49.6 54.4 49.2 54.2 48.8 54.2H39.7V54.3ZM2.6 54.3C2.6 56.1 4.1 57.6 5.9 57.6H24L24.1 45V44.8V44.7C24.3 39.4 28.4 35.3 33.6 35.2C36.4 35.2 39 36.4 40.8 38.4H47.9C49.5 36.6 51.7 35.5 54 35.3L54.1 11.7L2.8 11.6V54.3H2.6ZM5.8 3.10002C4 3.10002 2.5 4.60002 2.5 6.40002V9.60002L53.8 9.70002L53.9 6.40002C53.9 4.60002 52.4 3.10002 50.6 3.10002H5.8Z" fill="#4770FF"/>
<path d="M5.79999 7.30005C5.19999 7.30005 4.79999 6.90005 4.79999 6.30005C4.79999 5.70005 5.19999 5.30005 5.79999 5.30005H6.89999C7.49999 5.30005 7.89999 5.70005 7.89999 6.30005C7.89999 6.90005 7.49999 7.30005 6.89999 7.30005H5.79999Z" fill="#4770FF"/>
<path d="M11.2 7.30005C10.6 7.30005 10.2 6.90005 10.2 6.30005C10.2 5.70005 10.6 5.30005 11.2 5.30005H12.3C12.9 5.30005 13.3 5.70005 13.3 6.30005C13.3 6.90005 12.9 7.30005 12.3 7.30005H11.2Z" fill="#4770FF"/>
<path d="M16.5 7.30005C15.9 7.30005 15.5 6.90005 15.5 6.30005C15.5 5.70005 15.9 5.30005 16.5 5.30005H17.6C18.2 5.30005 18.6 5.70005 18.6 6.30005C18.6 6.90005 18.2 7.30005 17.6 7.30005H16.5Z" fill="#4770FF"/>
<path d="M45.3 7.30005C44.7 7.30005 44.3 6.90005 44.3 6.30005C44.3 5.70005 44.7 5.30005 45.3 5.30005H50.6C51.2 5.30005 51.6 5.70005 51.6 6.30005C51.6 6.90005 51.2 7.30005 50.6 7.30005H45.3Z" fill="#4770FF"/>
<path d="M20.8 32.9C20.5 32.9 20.3 32.8 20.1 32.6L12.6 25.1C12.4 24.9 12.3 24.7 12.3 24.4C12.3 24.1 12.4 23.9 12.6 23.7L20.1 16.2C20.3 16 20.5 15.9 20.8 15.9C21.1 15.9 21.3 16 21.5 16.2C21.9 16.6 21.9 17.2 21.5 17.6L14.8 24.3L21.5 31.1C21.9 31.5 21.9 32.1 21.5 32.5C21.3 32.8 21 32.9 20.8 32.9Z" fill="#4770FF"/>
<path d="M35.7 32.9C35.4 32.9 35.2 32.8 35 32.6C34.8 32.4 34.7 32.2 34.7 31.9C34.7 31.6 34.8 31.4 35 31.2L41.7 24.5L35 17.7C34.6 17.3 34.6 16.7 35 16.3C35.2 16.1 35.4 16 35.7 16C36 16 36.2 16.1 36.4 16.3L43.9 23.8C44.1 24 44.2 24.2 44.2 24.5C44.2 24.8 44.1 25 43.9 25.2L36.4 32.7C36.2 32.8 36 32.9 35.7 32.9Z" fill="#4770FF"/>
<path d="M25 32.9C24.9 32.9 24.7 32.9 24.6 32.8C24.1 32.6 23.9 32 24.1 31.5L30.5 16.6C30.7 16.2 31 16 31.4 16C31.5 16 31.7 16 31.8 16.1C32.3 16.3 32.5 16.9 32.3 17.4L26 32.3C25.8 32.7 25.4 32.9 25 32.9Z" fill="#4770FF"/>
</svg>
