<svg id="Line" enable-background="new 0 0 62 62" height="512" viewBox="0 0 62 62" width="512" xmlns="http://www.w3.org/2000/svg"><g><circle cx="45" cy="57" r="1"/><circle cx="41" cy="57" r="1"/><circle cx="37" cy="57" r="1"/><path d="m62 10c0-2.414-1.721-4.434-4-4.899v-5.101h-5.236l-11.143 5.571c-.509-.931-1.487-1.571-2.621-1.571h-6c-1.654 0-3 1.346-3 3v6c0 1.458 1.046 2.673 2.426 2.942l.063.094c.797 1.195 1.275 2.55 1.436 3.964h-24.925c-2.757 0-5 2.243-5 5v27h-1c-1.654 0-3 1.346-3 3 0 3.86 3.141 7 7 7h38c3.859 0 7-3.14 7-7 0-1.654-1.346-3-3-3h-1v-27c0-2.757-2.243-5-5-5h-3v-4.184c.698-.249 1.27-.745 1.621-1.387l11.143 5.571h5.236v-5.101c2.279-.465 4-2.485 4-4.899zm-20-2.382 10-5v14.764l-10-5zm-12 26.382v7c0 1.654-1.346 3-3 3h-.54c-.252-.281-.529-.537-.83-.766 1.417-.884 2.37-2.445 2.37-4.234v-3c0-1.654-1.346-3-3-3-1.008 0-1.994-.409-2.707-1.121l-.986-.986-1.519.38c-2.23.557-3.788 2.551-3.788 4.85v2.877c0 1.789.953 3.35 2.37 4.234-.3.229-.578.486-.83.766h-.54c-1.654 0-3-1.346-3-3v-7c0-4.411 3.589-8 8-8s8 3.589 8 8zm-9 8c-1.654 0-3-1.346-3-3v-2.877c0-1.379.935-2.576 2.273-2.91l.42-.105.186.186c1.085 1.084 2.587 1.706 4.121 1.706.552 0 1 .449 1 1v3c0 1.654-1.346 3-3 3zm-9-8v7c0 2.542 1.914 4.624 4.373 4.937-.237.644-.373 1.337-.373 2.063h-6v-22h6.026c-2.438 1.825-4.026 4.727-4.026 8zm10 10c2.206 0 4 1.794 4 4h-8c0-2.206 1.794-4 4-4zm5.627 1.937c2.459-.313 4.373-2.395 4.373-4.937v-7c0-3.273-1.588-6.175-4.026-8h6.026c0 1.103.897 2 2 2h2c1.103 0 2-.897 2-2h2v22h-14c0-.726-.136-1.419-.373-2.063zm10.373-19.937h-2v-4.972c0-1.763-.425-3.477-1.224-5.028h3.224zm12 29c0 2.757-2.243 5-5 5h-38c-2.757 0-5-2.243-5-5 0-.551.448-1 1-1h17v1c0 1.654 1.346 3 3 3h6c1.654 0 3-1.346 3-3v-1h17c.552 0 1 .449 1 1zm-28-1h8v1c0 .551-.448 1-1 1h-6c-.552 0-1-.449-1-1zm21-32c1.654 0 3 1.346 3 3v27h-40v-27c0-1.654 1.346-3 3-3h25v2h-24c-1.103 0-2 .897-2 2v22c0 1.103.897 2 2 2h32c1.103 0 2-.897 2-2v-22c0-1.103-.897-2-2-2h-2v-2zm-3-9c0 .551-.448 1-1 1h-6c-.552 0-1-.449-1-1v-6c0-.551.448-1 1-1h6c.552 0 1 .449 1 1zm16 5h-2v-16h2zm2-5.184v-5.632c1.161.414 2 1.514 2 2.816s-.839 2.402-2 2.816z"/><path d="m3 14h6.5l2.1 2.8c.563.751 1.46 1.2 2.4 1.2 1.654 0 3-1.346 3-3v-1h6c1.654 0 3-1.346 3-3v-8c0-1.654-1.346-3-3-3h-20c-1.654 0-3 1.346-3 3v8c0 1.654 1.346 3 3 3zm-1-11c0-.551.448-1 1-1h20c.552 0 1 .449 1 1v8c0 .551-.448 1-1 1h-8v3c0 .551-.448 1-1 1-.313 0-.612-.149-.8-.4l-2.7-3.6h-7.5c-.552 0-1-.449-1-1z"/><path d="m20 6h2v2h-2z"/><path d="m8 6h2v2h-2z"/><path d="m16 6h2v2h-2z"/><path d="m12 6h2v2h-2z"/><path d="m4 6h2v2h-2z"/><path d="m34 30h6v2h-6z"/><path d="m34 34h6v2h-6z"/><path d="m34 38h6v2h-6z"/><path d="m34 42h6v2h-6z"/></g></svg>