<svg width="65" height="65" viewBox="0 0 65 65" fill="none" xmlns="http://www.w3.org/2000/svg">
<path d="M47 60.8C47.5 60.8 48 60.4 48 59.8C48 59.2 47.6 58.8 47 58.8C46.4 58.8 46 59.2 46 59.8C46 60.4 46.4 60.8 47 60.8Z" fill="#4770FF"/>
<path d="M42.7999 60.8C43.2999 60.8 43.7999 60.4 43.7999 59.8C43.7999 59.2 43.3999 58.8 42.7999 58.8C42.1999 58.8 41.7999 59.2 41.7999 59.8C41.7999 60.4 42.2999 60.8 42.7999 60.8Z" fill="#4770FF"/>
<path d="M38.7 60.8C39.2 60.8 39.7 60.4 39.7 59.8C39.7 59.2 39.3 58.8 38.7 58.8C38.1 58.8 37.7 59.2 37.7 59.8C37.7 60.4 38.2 60.8 38.7 60.8Z" fill="#4770FF"/>
<path d="M60.3999 6.29997V1.09998H54.9999L43.4999 6.79997C42.9999 5.79997 41.8999 5.19997 40.7999 5.19997H34.5999C32.8999 5.19997 31.4999 6.59997 31.4999 8.29997V14.5C31.4999 16 32.4999 17.2 33.9999 17.5L34.0999 17.6C34.8999 18.8 35.3999 20.2 35.5999 21.7H9.89993C7.09993 21.7 4.79993 24 4.79993 26.8V54.7H3.79993C2.09993 54.7 0.699951 56.1 0.699951 57.8C0.699951 61.8 3.89993 65 7.89993 65H46.9999C50.9999 65 54.2 61.8 54.2 57.8C54.2 56.1 52.7999 54.7 51.0999 54.7H49.9999V26.8C49.9999 24 47.6999 21.7 44.8999 21.7H41.7999V17.3C42.4999 17 43.0999 16.5 43.4999 15.9L54.9999 21.6H60.3999V16.3C62.7999 15.8 64.4999 13.7 64.4999 11.3C64.4999 8.89997 62.7999 6.79997 60.3999 6.29997ZM51.0999 56.7C51.6999 56.7 52.2 57.2 52.2 57.8C52.2 60.7 49.8999 63 46.9999 63H7.79993C4.89993 63 2.59995 60.7 2.59995 57.8C2.59995 57.2 3.09995 56.7 3.69995 56.7H21.2999V57.7C21.2999 59.4 22.6999 60.8 24.3999 60.8H30.5999C32.2999 60.8 33.7 59.4 33.7 57.7V56.6H51.0999V56.7ZM23.2 57.8V56.7H31.4999V57.7C31.4999 58.3 30.9999 58.8 30.3999 58.8H24.2C23.7 58.8 23.2 58.4 23.2 57.8ZM41.7999 23.7H44.8999C46.5999 23.7 47.9999 25.1 47.9999 26.8V54.7H6.69995V26.8C6.69995 25.1 8.09993 23.7 9.79993 23.7H35.5999V25.8H10.7999C9.69993 25.8 8.79993 26.7 8.79993 27.8V50.5C8.79993 51.6 9.69993 52.5 10.7999 52.5H43.7999C44.8999 52.5 45.7999 51.6 45.7999 50.5V27.8C45.7999 26.7 44.8999 25.8 43.7999 25.8H41.7L41.7999 23.7ZM36.3999 17.5H39.7999V27.9H37.7V22.8C37.6 20.9 37.1999 19.2 36.3999 17.5ZM37.7 29.9H39.7999C40.8999 29.9 41.7999 29 41.8999 27.8H43.9999V50.5H29.4999C29.4999 49.8 29.3999 49.1 29.0999 48.3C31.6999 48 33.5999 45.8 33.5999 43.2V36C33.5999 32.7 32.0999 29.7 29.4999 27.8L29.3999 27.7H35.7999C35.6999 29 36.6 29.9 37.7 29.9ZM23.2 46.4C25.5 46.4 27.3999 48.3 27.2999 50.6H18.9999C19.0999 48.3 20.9 46.4 23.2 46.4ZM19.0999 41.3V38.3C19.0999 36.9 20.0999 35.6 21.4999 35.3L21.9999 35.2L22.2 35.4C23.3 36.5 24.8999 37.2 26.3999 37.2C26.9999 37.2 27.4999 37.7 27.4999 38.3V41.4C27.4999 43.1 26.0999 44.5 24.3999 44.5H22.2999C20.4999 44.4 19.0999 43 19.0999 41.3ZM26.9999 45.6C28.4999 44.6 29.3999 43 29.3999 41.3V38.2C29.3999 36.5 27.9999 35.1 26.2999 35.1C25.2999 35.1 24.1999 34.7 23.4999 33.9L22.4999 32.9L20.9999 33.3C18.6999 33.9 17.0999 35.9 17.0999 38.3V41.3C17.0999 43.1 17.9999 44.7 19.4999 45.7C19.1999 45.9 18.8999 46.2 18.5999 46.5H17.9999C16.2999 46.5 14.8999 45.1 14.8999 43.4V36.2C14.8999 31.6 18.6 27.9 23.2 27.9C27.8 27.9 31.4999 31.6 31.4999 36.2V43.4C31.4999 45.1 30.0999 46.5 28.3999 46.5H27.7999C27.4999 46.2 27.2999 45.9 26.9999 45.6ZM17.4999 48.4C17.1999 49.1 17.0999 49.8 17.0999 50.6H10.8999V27.9L17.2 28C14.6 30 13.0999 33 13.0999 36.2V43.4C12.8999 45.9 14.8999 48.1 17.4999 48.4ZM41.7999 14.4C41.7999 15 41.3 15.5 40.7 15.5H34.4999C33.8999 15.5 33.3999 15 33.3999 14.4V8.19997C33.3999 7.59997 33.8999 7.09998 34.4999 7.09998H40.7C41.3 7.09998 41.7999 7.59997 41.7999 8.19997V14.4ZM54.2 19L43.8999 13.8V8.89996L54.2999 3.69997L54.2 19ZM58.2999 19.6H56.2V2.99997H58.2999V19.6ZM60.3999 14.2V8.29997C61.5999 8.69997 62.4999 9.89997 62.4999 11.2C62.4999 12.6 61.6999 13.8 60.3999 14.2Z" fill="#4770FF"/>
<path d="M3.59998 15.4H10.3L12.5 18.3C13.1 19.1 14 19.5 15 19.5C16.7 19.5 18.1 18.1 18.1 16.4V15.3H24.3C26 15.3 27.4 13.9 27.4 12.2V3.89998C27.4 2.19998 26 0.799988 24.3 0.799988H3.69998C1.99998 0.799988 0.599976 2.19998 0.599976 3.89998V12.2C0.599976 14 1.89998 15.4 3.59998 15.4ZM2.49997 4.09999C2.49997 3.49999 2.99998 2.99998 3.59998 2.99998H24.2C24.8 2.99998 25.3 3.49999 25.3 4.09999V12.4C25.3 13 24.8 13.5 24.2 13.5H16V16.6C16 17.2 15.5 17.7 14.9 17.7C14.6 17.7 14.2 17.5 14 17.3L11.2 13.6H3.49997C2.89997 13.6 2.39996 13.1 2.39996 12.5V4.09999H2.49997Z" fill="#4770FF"/>
<path d="M23.2 7.19995H21.2V9.19995H23.2V7.19995Z" fill="#4770FF"/>
<path d="M10.7999 7.19995H8.79993V9.19995H10.7999V7.19995Z" fill="#4770FF"/>
<path d="M19.1 7.19995H17.1L17 9.19995H19.1V7.19995Z" fill="#4770FF"/>
<path d="M15 7.19995H12.9V9.19995H14.9L15 7.19995Z" fill="#4770FF"/>
<path d="M6.69998 7.19995H4.69998L4.59998 9.19995H6.69998V7.19995Z" fill="#4770FF"/>
<path d="M35.6 34H41.8V32H35.7L35.6 34Z" fill="#4770FF"/>
<path d="M35.6 38.1H41.8V36.1H35.7L35.6 38.1Z" fill="#4770FF"/>
<path d="M35.6 42.3H41.8V40.3L35.7 40.2L35.6 42.3Z" fill="#4770FF"/>
<path d="M35.6 46.4H41.8V44.4H35.7L35.6 46.4Z" fill="#4770FF"/>
</svg>
