<svg width="63" height="62" viewBox="0 0 63 62" fill="none" xmlns="http://www.w3.org/2000/svg">
<path d="M31.5 18.3C31.2 18.3 30.8 18.1 30.6 17.8L28.3999 14.2C25.8999 10 21.5 7.30002 16.7 6.90002V4.90002C22.2 5.30002 27.3 8.40002 30.1 13.2L31.3999 15.4L32.7 13.2C35.6 8.40002 40.6 5.30002 46.1 4.90002V6.90002C41.3 7.30002 36.8999 10 34.3999 14.2L32.2 17.8C32.2 18.1 31.9 18.3 31.5 18.3Z" fill="#4770FF"/>
<path d="M55.7 57.1V55.1H61.2999C61.8999 55.1 62.2999 55.5 62.2999 56.1C62.2999 56.7 61.8999 57.1 61.2999 57.1H55.7Z" fill="#4770FF"/>
<path d="M1.79999 57.1C1.19999 57.1 0.799988 56.7 0.799988 56.1C0.799988 55.5 1.19999 55.1 1.79999 55.1H37.1V57.1H1.79999Z" fill="#4770FF"/>
<path d="M6.39996 43.4C5.79996 43.4 5.39996 43 5.39996 42.4C5.39996 41.8 5.79996 41.4 6.39996 41.4H18.8V43.4H6.39996Z" fill="#4770FF"/>
<path d="M1.79999 36.6C1.19999 36.6 0.799988 36.2 0.799988 35.6C0.799988 35 1.19999 34.6 1.79999 34.6H18.8V36.6H1.79999Z" fill="#4770FF"/>
<path d="M6.39996 29.7C5.79996 29.7 5.39996 29.3 5.39996 28.7C5.39996 28.1 5.79996 27.7 6.39996 27.7H18.8V29.7H6.39996Z" fill="#4770FF"/>
<path d="M24.7 48C24.5 48 24.3 48 24.2 47.9C23.9 47.7 23.7 47.4 23.7 47V24.1C23.7 23.7 23.9 23.4 24.2 23.2C24.4 23.1 24.5 23.1 24.7 23.1C24.9 23.1 25 23.1 25.2 23.2L45.8 34.6C46.1 34.8 46.3 35.1 46.3 35.5C46.3 35.9 46.1 36.2 45.8 36.4L25.2 47.8C25 48 24.8 48 24.7 48ZM25.7 45.3L43.2 35.6L25.7 25.9V45.3Z" fill="#4770FF"/>
<path d="M6.39998 11.4C3.29998 11.4 0.799988 8.90002 0.799988 5.80002C0.799988 2.70002 3.29998 0.200012 6.39998 0.200012C9.49998 0.200012 12 2.70002 12 5.80002C12 8.90002 9.39998 11.4 6.39998 11.4ZM6.39998 2.30002C4.39998 2.30002 2.79999 3.90002 2.79999 5.90002C2.79999 7.90002 4.39998 9.50002 6.39998 9.50002C8.39998 9.50002 9.99998 7.90002 9.99998 5.90002C9.99998 3.90002 8.29998 2.30002 6.39998 2.30002Z" fill="#4770FF"/>
<path d="M56.7 11.4C53.6 11.4 51.1 8.90002 51.1 5.80002C51.1 2.70002 53.6 0.200012 56.7 0.200012C59.8 0.200012 62.3 2.70002 62.3 5.80002C62.3 8.90002 59.7 11.4 56.7 11.4ZM56.7 2.30002C54.7 2.30002 53.1 3.90002 53.1 5.90002C53.1 7.90002 54.7 9.50002 56.7 9.50002C58.7 9.50002 60.3 7.90002 60.3 5.90002C60.3 3.90002 58.6 2.30002 56.7 2.30002Z" fill="#4770FF"/>
<path d="M42.9 61.7C42.3 61.7 41.9 61.3 41.9 60.7V51.6C41.9 51 42.3 50.6 42.9 50.6H49.8C50.4 50.6 50.8 51 50.8 51.6V60.7C50.8 61.3 50.4 61.7 49.8 61.7H42.9ZM43.9 59.7H48.8V52.6H43.9V59.7Z" fill="#4770FF"/>
</svg>
