<svg enable-background="new 0 0 32 32" viewBox="0 0 32 32" xmlns="http://www.w3.org/2000/svg"><g id="Guides"/><g id="_x32_0"/><g id="_x31_9"/><g id="_x31_8"/><g id="_x31_7"/><g id="_x31_6"/><g id="_x31_5"/><g id="_x31_4"/><g id="_x31_3"/><g id="_x31_2"/><g id="_x31_1"/><g id="_x31_0"/><g id="_x30_9"/><g id="_x30_8"><path d="m16 11c-.3510742 0-.6767578-.184082-.8574219-.4853516l-.9418945-1.5698242c-1.0898438-1.8164062-3.0825195-2.9448242-5.2006836-2.9448242v-2c2.8164063 0 5.4663086 1.5004883 6.9155273 3.9155273l.0844727.140625.0844727-.140625c1.4487304-2.415039 4.0991211-3.9155273 6.9155273-3.9155273v2c-2.1181641 0-4.1103516 1.128418-5.2001953 2.9448242l-.9423828 1.5698242c-.1806641.3012696-.5063477.4853516-.8574219.4853516z"/><path d="m29 26h-3v2h3c.5527344 0 1-.4477539 1-1s-.4472656-1-1-1z"/><path d="m19 26h-16c-.5522461 0-1 .4477539-1 1s.4477539 1 1 1h16z"/><path d="m11 20h-6c-.5522461 0-1 .4477539-1 1s.4477539 1 1 1h6z"/><path d="m11 17h-8c-.5522461 0-1 .4477539-1 1s.4477539 1 1 1h8z"/><path d="m11 14h-6c-.5522461 0-1 .4477539-1 1s.4477539 1 1 1h6z"/><path d="m13 24c-.175293 0-.3505859-.0458984-.5073242-.1381836-.3051758-.1796875-.4926758-.5073242-.4926758-.8618164v-10c0-.3544922.1875-.6821289.4926758-.8618164.3056641-.1801758.6831055-.1845703.9931641-.012207l8.9995117 5c.3173828.1762695.5146484.5107422.5146484.8740234s-.1972656.6977539-.5146484.8740234l-8.9995117 5c-.1513672.0839844-.3188477.1259766-.4858399.1259766zm1-9.300293v6.6005859l5.9404297-3.3002929z"/><path d="m5 8c-1.6542969 0-3-1.3457031-3-3s1.3457031-3 3-3 3 1.3457031 3 3-1.3457031 3-3 3zm0-4c-.5512695 0-1 .4487305-1 1s.4487305 1 1 1 1-.4487305 1-1-.4487305-1-1-1z"/><path d="m27 8c-1.6542969 0-3-1.3457031-3-3s1.3457031-3 3-3 3 1.3457031 3 3-1.3457031 3-3 3zm0-4c-.5517578 0-1 .4487305-1 1s.4482422 1 1 1 1-.4487305 1-1-.4482422-1-1-1z"/><path d="m24 30h-3c-.5527344 0-1-.4477539-1-1v-4c0-.5522461.4472656-1 1-1h3c.5527344 0 1 .4477539 1 1v4c0 .5522461-.4472656 1-1 1zm-2-2h1v-2h-1z"/></g><g id="_x30_7"/><g id="_x30_6"/><g id="_x30_5"/><g id="_x30_4"/><g id="_x30_3"/><g id="_x30_2"/><g id="_x30_1"/></svg>