<svg id="Layer_1" enable-background="new 0 0 512 512" viewBox="0 0 512 512" xmlns="http://www.w3.org/2000/svg"><path d="m84.652 322.191h-3.631c-13.107 0-23.771 10.664-23.771 23.772 0 13.107 10.664 23.771 23.771 23.771h385.71c13.107 0 23.771-10.664 23.771-23.772 0-13.107-10.664-23.771-23.771-23.771h-3.63v-228.778h3.63c13.107 0 23.771-10.664 23.771-23.772s-10.664-23.772-23.771-23.772h-208.845v-5.551c0-17.82-14.497-32.318-32.318-32.318h-178.11c-17.82 0-32.318 14.498-32.318 32.318v121.878c0 17.82 14.498 32.317 32.318 32.317h37.194zm389.851 23.773c0 4.285-3.486 7.771-7.771 7.771h-385.711c-4.285 0-7.771-3.486-7.771-7.772 0-4.285 3.486-7.771 7.771-7.771h385.71c4.286-.001 7.772 3.486 7.772 7.772zm-7.772-284.095c4.285 0 7.771 3.486 7.771 7.772s-3.486 7.772-7.771 7.772h-208.845v-15.544zm-208.845 100.327v-68.783h189.216v228.778h-346.45v-127.678h53.344l45.225 47.078c1.539 1.602 3.635 2.458 5.771 2.458 1.004 0 2.017-.189 2.985-.579 3.028-1.219 5.013-4.156 5.013-7.421v-41.536h12.578c17.821 0 32.318-14.497 32.318-32.317zm-226.746 0v-121.878c0-8.998 7.32-16.318 16.318-16.318h178.11c8.997 0 16.317 7.32 16.317 16.318v121.878c0 8.998-7.32 16.317-16.317 16.317h-20.578c-4.418 0-8 3.582-8 8v29.66l-33.816-35.202c-1.509-1.57-3.592-2.458-5.77-2.458h-109.946c-8.998 0-16.318-7.32-16.318-16.317zm193.877 134.673c1.518 1.688 3.681 2.652 5.95 2.652h182.513c2.27 0 4.433-.964 5.95-2.652s2.246-3.942 2.004-6.199c-4.233-39.559-31.064-71.533-66.891-83.728 13.39-9.92 22.089-25.83 22.089-43.737 0-30-24.407-54.408-54.408-54.408-30 0-54.407 24.407-54.407 54.408 0 17.906 8.698 33.815 22.088 43.736-35.828 12.195-62.66 44.169-66.893 83.729-.241 2.257.487 4.511 2.005 6.199zm58.8-133.664c0-21.178 17.229-38.408 38.407-38.408 21.179 0 38.408 17.229 38.408 38.408 0 21.172-17.219 38.396-38.389 38.407-.007 0-.014 0-.021 0-.006 0-.013 0-.02 0-21.166-.011-38.385-17.236-38.385-38.407zm38.387 54.407h.021s.014 0 .021 0c39.893.01 73.636 27.773 81.858 65.909h-163.76c8.222-38.136 41.966-65.899 81.86-65.909zm174.61 277.536c-2.425-22.663-16.774-41.325-36.436-50.056 6.222-6.372 10.067-15.076 10.067-24.665 0-19.482-15.85-35.332-35.331-35.332-19.482 0-35.332 15.85-35.332 35.332 0 9.589 3.845 18.292 10.067 24.665-11.952 5.308-21.941 14.284-28.481 25.599-6.54-11.315-16.529-20.291-28.48-25.598 6.222-6.372 10.067-15.076 10.067-24.665 0-19.482-15.85-35.332-35.332-35.332s-35.332 15.85-35.332 35.332c0 9.589 3.845 18.292 10.067 24.665-11.952 5.308-21.941 14.284-28.481 25.599-6.541-11.315-16.53-20.291-28.482-25.599 6.222-6.372 10.067-15.076 10.067-24.665 0-19.482-15.85-35.332-35.331-35.332-19.482 0-35.332 15.85-35.332 35.332 0 9.589 3.845 18.292 10.067 24.665-11.952 5.308-21.941 14.284-28.481 25.599-6.54-11.315-16.529-20.291-28.48-25.598 6.222-6.372 10.067-15.076 10.067-24.665 0-19.482-15.85-35.332-35.332-35.332s-35.332 15.85-35.332 35.332c0 9.589 3.845 18.292 10.067 24.665-19.662 8.731-34.011 27.393-36.436 50.056-.242 2.257.486 4.511 2.004 6.199s3.68 2.651 5.95 2.651h429.967c2.27 0 4.433-.965 5.95-2.652 1.518-1.689 2.247-3.943 2.004-6.2zm-81.032-74.72c0-10.66 8.672-19.332 19.332-19.332 10.659 0 19.331 8.672 19.331 19.332 0 10.656-8.665 19.324-19.318 19.331-.004 0-.009 0-.013 0s-.009 0-.013 0c-10.654-.007-19.319-8.676-19.319-19.331zm-107.491 0c0-10.66 8.672-19.332 19.332-19.332s19.332 8.672 19.332 19.332c0 10.656-8.665 19.324-19.319 19.331-.004 0-.009 0-.014 0-.004 0-.008 0-.013 0-10.653-.007-19.318-8.676-19.318-19.331zm-107.492 0c0-10.66 8.672-19.332 19.332-19.332 10.659 0 19.331 8.672 19.331 19.332 0 10.656-8.665 19.324-19.318 19.331-.004 0-.009 0-.013 0s-.009 0-.013 0c-10.654-.007-19.319-8.676-19.319-19.331zm-107.491 0c0-10.66 8.672-19.332 19.332-19.332s19.332 8.672 19.332 19.332c0 10.656-8.665 19.324-19.319 19.331-.004 0-.009 0-.014 0-.004 0-.008 0-.013 0-10.654-.007-19.318-8.676-19.318-19.331zm-24.631 67.572c5.88-18.879 23.432-32.232 43.941-32.241h.022.021c20.509.01 38.06 13.361 43.94 32.24zm107.492-.001c5.88-18.879 23.431-32.23 43.94-32.24h.021s.014 0 .021 0c20.509.009 38.061 13.362 43.94 32.241zm107.492.001c5.879-18.879 23.43-32.232 43.94-32.241h.022.021c20.509.01 38.06 13.361 43.94 32.24zm107.491-.001c5.88-18.879 23.431-32.23 43.94-32.24h.021s.014 0 .021 0c20.509.009 38.061 13.362 43.94 32.241zm-190.989-338.214v-97.056c0-8.338-6.784-15.123-15.122-15.123h-97.056c-8.338 0-15.122 6.784-15.122 15.123v97.055c0 8.338 6.784 15.123 15.122 15.123h97.056c8.338 0 15.122-6.784 15.122-15.122zm-16-.878h-95.3v-95.3h95.3zm-69.732-13.426c1.854 1.071 3.886 1.605 5.919 1.605 2.032 0 4.064-.535 5.916-1.604l41.53-23.978c3.705-2.139 5.917-5.97 5.917-10.248s-2.212-8.109-5.917-10.248l-41.528-23.977c-3.705-2.14-8.129-2.141-11.832-.002-3.707 2.138-5.92 5.97-5.92 10.25v47.955c0 4.28 2.213 8.112 5.915 10.247zm10.085-50.984 29.03 16.761-29.03 16.76z"/></svg>