<svg width="65" height="64" viewBox="0 0 65 64" fill="none" xmlns="http://www.w3.org/2000/svg">
<path d="M9.3 46.6C7.6 46.6 6.2 45.2 6.2 43.6C6.2 42 7.6 40.6 9.3 40.6H9.8V24.1H4.8C2.5 24.1 0.5 22.2 0.5 20V4.30002C0.5 2.00002 2.4 0.200012 4.8 0.200012H28.5C30.8 0.200012 32.8 2.10002 32.8 4.30002V5.00002H60.6C62.3 5.00002 63.7 6.40002 63.7 8.00002C63.7 9.70002 62.3 11 60.6 11H60V40.6H60.5C62.2 40.6 63.6 42 63.6 43.6C63.6 45.2 62.2 46.6 60.5 46.6H9.3ZM9.3 42.6C8.7 42.6 8.2 43.1 8.2 43.6C8.2 44.1 8.7 44.6 9.3 44.6H60.5C61.1 44.6 61.6 44.1 61.6 43.6C61.6 43.1 61.1 42.6 60.5 42.6H9.3ZM11.8 40.5H57.9V10.9H32.7V19.8C32.7 22.1 30.8 23.9 28.4 23.9H26.7V29.3C26.7 29.7 26.4 30.1 26.1 30.2C26 30.2 25.8 30.3 25.7 30.3C25.4 30.3 25.2 30.2 25 30L19 23.9H11.9V40.5H11.8ZM4.8 2.00002C3.6 2.00002 2.6 3.00002 2.6 4.10002V19.8C2.6 21 3.6 21.9 4.8 21.9H19.4C19.7 21.9 19.9 22 20.1 22.2L24.6 26.7L24.7 22.8C24.7 22.3 25.2 21.8 25.7 21.8H28.4C29.6 21.8 30.6 20.8 30.6 19.7V4.00002C30.6 2.80002 29.6 1.90001 28.4 1.90001H4.8V2.00002ZM32.7 9.00002H60.5C61.1 9.00002 61.6 8.50002 61.6 8.00002C61.6 7.50002 61.1 7.00002 60.5 7.00002H32.7V9.00002Z" fill="#4770FF"/>
<path d="M6.30001 64C6.00001 64 5.70001 63.9 5.50001 63.7C5.30001 63.5 5.20001 63.2 5.20001 62.9C5.50001 60.1 7.40001 57.6 10 56.5C9.20001 55.6 8.70001 54.5 8.70001 53.3C8.70001 50.8 10.8 48.8 13.4 48.8C16 48.8 18.1 50.8 18.1 53.3C18.1 54.5 17.6 55.6 16.8 56.5C18.4 57.2 19.7 58.4 20.6 59.8C21.5 58.4 22.9 57.2 24.4 56.5C23.6 55.6 23.1 54.5 23.1 53.3C23.1 50.8 25.2 48.8 27.8 48.8C30.4 48.8 32.5 50.8 32.5 53.3C32.5 54.5 32 55.6 31.2 56.5C32.8 57.2 34.1 58.4 35 59.8C35.9 58.4 37.3 57.2 38.8 56.5C38 55.6 37.5 54.5 37.5 53.3C37.5 50.8 39.6 48.8 42.2 48.8C44.8 48.8 46.9 50.8 46.9 53.3C46.9 54.5 46.4 55.6 45.6 56.5C47.2 57.2 48.5 58.4 49.4 59.8C50.3 58.4 51.7 57.2 53.2 56.5C52.4 55.6 51.9 54.5 51.9 53.3C51.9 50.8 54 48.8 56.6 48.8C59.2 48.8 61.3 50.8 61.3 53.3C61.3 54.5 60.8 55.6 60 56.5C62.7 57.7 64.5 60.2 64.8 63C64.8 63.3 64.7 63.6 64.5 63.8C64.3 64 64 64.1001 63.7 64.1001H6.30001V64ZM56.3 57.7C53.6 57.7 51.2 59.4 50.4 61.9H62.1C61.4 59.4 59 57.7 56.3 57.7ZM42 57.7C39.3 57.7 36.9 59.4 36.1 61.9H47.8C47.1 59.4 44.7 57.7 42 57.7ZM27.7 57.7C25 57.7 22.6 59.4 21.8 61.9H33.5C32.8 59.4 30.5 57.7 27.7 57.7ZM13.5 57.7C10.8 57.7 8.40001 59.4 7.60001 61.9H19.3C18.5 59.4 16.2 57.7 13.5 57.7ZM56.3 50.7C54.9 50.7 53.7 51.8 53.7 53.2C53.7 54.6 54.9 55.7 56.3 55.7C57.7 55.7 58.9 54.6 58.9 53.2C58.9 51.8 57.7 50.7 56.3 50.7ZM42 50.7C40.6 50.7 39.4 51.8 39.4 53.2C39.4 54.6 40.6 55.7 42 55.7C43.4 55.7 44.6 54.6 44.6 53.2C44.6 51.8 43.5 50.7 42 50.7ZM27.7 50.7C26.3 50.7 25.1 51.8 25.1 53.2C25.1 54.6 26.3 55.7 27.7 55.7C29.1 55.7 30.3 54.6 30.3 53.2C30.4 51.8 29.2 50.7 27.7 50.7ZM13.5 50.7C12.1 50.7 10.9 51.8 10.9 53.2C10.9 54.6 12.1 55.7 13.5 55.7C14.9 55.7 16.1 54.6 16.1 53.2C16.1 51.8 14.9 50.7 13.5 50.7Z" fill="#4770FF"/>
<path d="M29.2 37.6C28.9 37.6 28.6 37.5 28.4 37.3C28.2 37.1 28.1 36.8 28.1 36.5C28.6 31.6 32.1 27.3 37 25.7C35.2 24.3 34.1 22.2 34.1 20C34.1 16.1 37.3 13 41.3 13C45.3 13 48.5 16.1 48.5 20C48.5 22.2 47.4 24.3 45.6 25.6C50.4 27.3 53.9 31.5 54.5 36.4C54.5 36.7 54.4 37 54.2 37.2C54 37.4 53.7 37.5 53.4 37.5H29.2V37.6ZM41.3 27C36 27 31.5 30.5 30.4 35.5H52.2C51.1 30.5 46.6 27 41.3 27ZM41.3 15C38.5 15 36.2 17.2 36.2 20C36.2 22.8 38.5 25 41.3 25C44.1 25 46.4 22.8 46.4 20C46.5 17.3 44.1 15 41.3 15Z" fill="#4770FF"/>
<path d="M10.2 20.2C9.10001 20.2 8.20001 19.3 8.20001 18.3V5.80003C8.20001 4.70003 9.10001 3.90002 10.2 3.90002H23.1C24.2 3.90002 25.1 4.80003 25.1 5.80003V18.3C25.1 19.4 24.2 20.2 23.1 20.2H10.2ZM10.3 18.2H23V5.90002H10.3V18.2Z" fill="#4770FF"/>
<path d="M14.5 16.6C14.2 16.6 14 16.5 13.7 16.4C13.2 16.1 12.9 15.6 12.9 15.1V8.90002C12.9 8.40002 13.2 7.90004 13.7 7.60004C13.9 7.50004 14.2 7.40002 14.5 7.40002C14.8 7.40002 15 7.50004 15.3 7.60004L20.8 10.7C21.3 11 21.6 11.5 21.6 12C21.6 12.5 21.3 13 20.8 13.3L15.3 16.4C15 16.6 14.8 16.6 14.5 16.6ZM15 14.2L18.9 12.1L15 9.80003V14.2Z" fill="#4770FF"/>
</svg>
