<svg width="65" height="64" viewBox="0 0 65 64" fill="none" xmlns="http://www.w3.org/2000/svg">
<path d="M31.4 59.7L31.5 57.6L33.6 57.7L33.5 59.7H31.4Z" fill="#4770FF"/>
<path d="M17.6 28.7C17.4 28.7 17.2 28.6 17 28.5L9.79997 23.4H5.79997C4.39997 23.4 3.09998 22.9 2.09998 21.9C1.09998 20.9 0.599976 19.6 0.599976 18.2V5.40001C0.599976 4.00001 1.19998 2.70001 2.09998 1.70001C3.09998 0.700012 4.39997 0.200012 5.79997 0.200012H25C26.4 0.200012 27.7 0.800012 28.7 1.70001C29.7 2.70001 30.2 4.00001 30.2 5.40001V18.2C30.2 19.6 29.6 20.9 28.7 21.9C27.7 22.9 26.4 23.4 25 23.4H17.7L18.5 27.5C18.5 27.7 18.5 27.9 18.4 28.1C18.3 28.3 18.2 28.4 18 28.6C18 28.7 17.8 28.7 17.6 28.7ZM5.79997 2.10002C4.89997 2.10002 4.09997 2.40002 3.49997 3.10002C2.89997 3.70002 2.49997 4.50001 2.49997 5.40001V18.2C2.49997 19.1 2.79997 19.9 3.49997 20.5C4.09997 21.1 4.89997 21.5 5.79997 21.5H10.1C10.3 21.5 10.5 21.6 10.7 21.7L16.1 25.6L15.5 22.8C15.5 22.7 15.5 22.5 15.5 22.4C15.5 22.3 15.6 22.1 15.7 22C15.8 21.9 15.9 21.8 16 21.7C16.1 21.6 16.3 21.6 16.4 21.6H24.9C25.8 21.6 26.6 21.3 27.2 20.6C27.8 20 28.2 19.2 28.2 18.3V5.50002C28.2 4.60002 27.8 3.80001 27.2 3.20001C26.6 2.60001 25.8 2.20001 24.9 2.20001H5.79997V2.10002Z" fill="#4770FF"/>
<path d="M21.8 18.1001C21.6 18.1001 21.5 18.1 21.4 18L18.6 16.6001V17.1001C18.6 17.4001 18.5 17.6 18.3 17.8C18.1 18 17.9 18.1001 17.6 18.1001H8.99997C8.69997 18.1001 8.49997 18 8.29997 17.8C8.09997 17.6 7.99997 17.4001 7.99997 17.1001V10.7C7.59997 10.3 7.39997 9.90004 7.19997 9.40004C6.99997 8.90004 6.89996 8.50005 6.89996 8.00005C6.89996 7.50005 6.99997 7.00005 7.19997 6.60005C7.39997 6.20005 7.69997 5.80004 7.99997 5.40004C8.29997 5.10004 8.79997 4.80005 9.19997 4.60005C9.59997 4.40005 10.1 4.30005 10.6 4.30005C11.1 4.30005 11.6 4.40005 12 4.60005C12.4 4.80005 12.8 5.10004 13.2 5.40004C13.6 5.10004 14 4.80005 14.5 4.60005C14.9 4.40005 15.4 4.30005 15.9 4.30005C16.4 4.30005 16.9 4.40005 17.3 4.60005C17.8 4.80005 18.2 5.00004 18.5 5.40004C18.8 5.70004 19.1 6.10005 19.3 6.60005C19.5 7.00005 19.6 7.50005 19.6 8.00005C19.6 8.50005 19.5 9.00004 19.3 9.40004C19.1 9.80004 18.9 10.3001 18.5 10.6001V11.2L21.3 9.80005C21.4 9.70005 21.6 9.70004 21.7 9.70004C21.9 9.70004 22.1 9.80005 22.2 9.80005C22.3 9.90005 22.5 10 22.5 10.2C22.5 10.4 22.6 10.5 22.6 10.7V17.1001C22.6 17.3001 22.6 17.4001 22.5 17.6001C22.4 17.7001 22.3 17.9 22.2 18C22.2 18 22.1 18.1001 21.8 18.1001ZM9.99997 16L16.5 16.1001L16.6 11.8L10.1 11.7V16H9.99997ZM18.6 13.4V14.3L20.9 15.5V12.3L18.6 13.4ZM16 6.30005C15.6 6.30005 15.1 6.50005 14.8 6.80005C14.5 7.10005 14.3 7.50005 14.3 8.00005C14.3 8.30005 14.4 8.70004 14.6 8.90004C14.8 9.20004 15 9.40005 15.3 9.50005C15.5 9.60005 15.7 9.60005 15.9 9.60005C16 9.60005 16.1 9.60005 16.2 9.60005C16.5 9.50005 16.8 9.40005 17.1 9.10005C17.3 8.90005 17.5 8.60004 17.6 8.20004C17.7 7.90004 17.6 7.50004 17.5 7.20004C17.4 6.90004 17.2 6.60005 16.9 6.50005C16.6 6.40005 16.3 6.30005 16 6.30005ZM10.6 6.30005C10.2 6.30005 9.69996 6.50005 9.39996 6.80005C9.09996 7.10005 8.89996 7.50005 8.89996 8.00005C8.89996 8.30005 8.99997 8.70004 9.19997 8.90004C9.39997 9.20004 9.59996 9.40005 9.89996 9.50005C10.1 9.60005 10.3 9.60005 10.5 9.60005C10.6 9.60005 10.7 9.60005 10.8 9.60005C11.1 9.50005 11.4 9.40005 11.7 9.10005C11.9 8.90005 12.1 8.60004 12.2 8.20004C12.3 7.90004 12.2 7.50004 12.1 7.20004C12 6.90004 11.8 6.60005 11.5 6.50005C11.3 6.40005 11 6.30005 10.6 6.30005Z" fill="#4770FF"/>
<path d="M20.8 63.9C19.4 63.9 18.1 63.3 17.1 62.4C16.1 61.4 15.6 60.1 15.6 58.7V53.4L43 53.5C43.3 52.8 43.7 52.1 44.1 51.5L37.8 45.1C37.4 44.7 37 44.1 36.8 43.6C36.6 43 36.4 42.4 36.4 41.8C36.4 41.2 36.5 40.6 36.8 40C37 39.4 37.4 38.9 37.8 38.5C38.2 38.1 38.8 37.7 39.3 37.5C39.9 37.3 40.5 37.1 41.1 37.1C41.7 37.1 42.3 37.2 42.9 37.5C43.5 37.7 44 38.1 44.4 38.5L47.5 41.6V37L47 37.4C46.8 37.5 46.6 37.6 46.4 37.6C46.2 37.6 46 37.5 45.8 37.4C45.6 37.3 45.5 37.1 45.4 36.9C45.3 36.7 45.3 36.5 45.3 36.3L46.1 32.2H37.7C36.3 32.2 35 31.6 34 30.7C33 29.7 32.5 28.4 32.5 27V14.2C32.5 12.8 33.1 11.5 34 10.5C35 9.50003 36.3 9.00003 37.7 9.00003H47.2V8.90002C47 8.30002 46.6 7.70003 46 7.30003C45.4 6.90003 44.8 6.70003 44.1 6.70003H32.4L32.5 4.60004L44.2 4.70003C45.4 4.70003 46.6 5.10002 47.5 5.90002C48.4 6.70002 49.1 7.70002 49.3 8.90002L59.1 9.00003C60.5 9.00003 61.8 9.50003 62.8 10.5C63.8 11.5 64.3 12.8 64.3 14.2V27C64.3 28.4 63.7 29.7 62.8 30.7C61.8 31.7 60.5 32.2 59.1 32.2H54.1L54 32L56.3 35C58.1 37.1 59.1 39.8 59.1 42.6V62.8C59.1 63.1 59 63.3 58.8 63.5C58.6 63.7 58.4 63.8 58.1 63.8H20.8V63.9ZM41 38.8C40.3 38.8 39.6 39.1 39 39.6C38.5 40.1 38.2 40.8 38.2 41.6C38.2 42 38.3 42.3 38.4 42.7C38.5 43 38.7 43.3 39 43.6L45.9 50.5C46.1 50.7 46.2 50.9 46.2 51.1C46.2 51.3 46.2 51.6 46 51.8L45.5 52.5C45 53.2 44.7 53.9 44.5 54.7C44.1 55.9 44 57.2 44.2 58.4C44.4 59.6 44.9 60.8 45.6 61.9H56.8L56.9 42.7C56.9 40.4 56.1 38.1 54.5 36.3L52.1 33.2L49.3 35.1V43.2L53.3 47.2L51.8 48.6L42.8 39.5C42.5 39.2 42.2 39 41.9 38.9C41.8 38.9 41.4 38.8 41 38.8ZM17.5 58.7C17.5 59.6 17.8 60.4 18.5 61C19.1 61.6 19.9 62 20.8 62H43.5V61.9C42.5 59.9 42.1 57.7 42.5 55.5L17.6 55.4V58.7H17.5ZM34.7 27.1C34.8 27.9 35.2 28.6 35.8 29.1C36.4 29.6 37.1 29.9 37.9 29.9H47.5C47.6 29.9 47.8 29.9 47.9 30C48 30.1 48.2 30.2 48.2 30.3C48.3 30.4 48.4 30.5 48.4 30.7C48.4 30.8 48.4 31 48.4 31.1L47.8 33.9L53.2 30C53.4 29.9 53.6 29.8 53.8 29.8H59.1C59.9 29.8 60.6 29.5 61.2 29C61.8 28.5 62.2 27.8 62.3 27.1L57 23.5L51.1 27.4C50.9 27.5 50.7 27.6 50.5 27.6C50.3 27.6 50.1 27.5 49.9 27.4L42 21.5L34.7 27.1ZM42.1 19.3C42.3 19.3 42.5 19.4 42.7 19.5L50.6 25.4L56.4 21.6C56.6 21.5 56.8 21.4 57 21.4C57.2 21.4 57.4 21.5 57.6 21.6L62.4 24.8V13.9C62.4 13 62.1 12.2 61.4 11.6C60.8 11 60 10.6 59.1 10.6H37.8C36.9 10.6 36.1 10.9 35.5 11.6C34.9 12.2 34.5 13 34.5 13.9V24.7L41.4 19.5C41.7 19.3 41.9 19.3 42.1 19.3Z" fill="#4770FF"/>
<path d="M50.6 21.3C49.5 21.3 48.4 20.9 47.6 20.1C46.8 19.3 46.4 18.3 46.4 17.1C46.4 16.3 46.6 15.5 47.1 14.8C47.6 14.1 48.2 13.6 49 13.3C49.5 13.1 50.1 13 50.6 13C50.9 13 51.1 13 51.4 13.1C52.2 13.3 53 13.7 53.6 14.3C54.2 14.9 54.6 15.6 54.8 16.5C55 17.3 54.9 18.2 54.6 18.9C54.3 19.7 53.7 20.3 53.1 20.8C52.3 21 51.5 21.3 50.6 21.3ZM50.6 14.9C50 14.9 49.5 15.1 49 15.5C48.6 15.9 48.4 16.5 48.4 17.1C48.4 17.5 48.5 18 48.8 18.3C49 18.7 49.4 18.9 49.8 19.1C50.1 19.2 50.4 19.3 50.6 19.3C50.7 19.3 50.9 19.3 51 19.3C51.4 19.2 51.8 19 52.1 18.7C52.4 18.4 52.6 18 52.7 17.6C52.8 17.2 52.7 16.7 52.6 16.3C52.4 15.9 52.2 15.6 51.8 15.3C51.4 15 51.1 14.9 50.6 14.9Z" fill="#4770FF"/>
<path d="M5.79997 51.1C4.39997 51.1 3.09998 50.5 2.09998 49.6C1.09998 48.6 0.599976 47.3 0.599976 45.9V39.5C0.599976 38.1 1.19998 36.8 2.09998 35.8C3.09998 34.8 4.39997 34.3 5.79997 34.3H14L21.3 30.2C21.5 30.1 21.6 30.1 21.8 30.1C22.1 30.1 22.2 30.2 22.4 30.3C22.6 30.4 22.7 30.6 22.7 30.8C22.8 31 22.8 31.2 22.7 31.4L21.9 34.4H22.8C24.2 34.4 25.5 35 26.5 35.9C27.5 36.9 28 38.2 28 39.6V46C28 47.4 27.5 48.7 26.5 49.7C25.5 50.7 24.2 51.2 22.8 51.2H5.79997V51.1ZM5.79997 36.2C4.89997 36.2 4.09997 36.6 3.49997 37.2C2.89997 37.8 2.49997 38.6 2.49997 39.5V45.9C2.49997 46.8 2.79997 47.6 3.49997 48.2C4.09997 48.8 4.89997 49.2 5.79997 49.2H22.9C23.8 49.2 24.6 48.8 25.2 48.2C25.8 47.6 26.2 46.8 26.2 45.9V39.5C26.2 38.6 25.9 37.8 25.2 37.2C24.6 36.6 23.8 36.2 22.9 36.2H20.8C20.6 36.2 20.5 36.2 20.4 36.1C20.3 36 20.1 35.9 20 35.8C19.9 35.7 19.8 35.5 19.8 35.4C19.8 35.3 19.8 35.1 19.8 34.9L20.3 32.9L14.9 36C14.7 36.1 14.6 36.1 14.4 36.1H5.79997V36.2Z" fill="#4770FF"/>
<path d="M4.79999 41.5V39.5H16.5V41.5H4.79999Z" fill="#4770FF"/>
<path d="M18.6 41.5L18.7 39.5H24L23.9 41.5H18.6Z" fill="#4770FF"/>
<path d="M4.79999 45.8V43.7L24 43.8L23.9 45.8H4.79999Z" fill="#4770FF"/>
</svg>
