<svg width="64" height="55" viewBox="0 0 64 55" fill="none" xmlns="http://www.w3.org/2000/svg">
<path d="M55.6 0.900024H8.19998C3.89998 0.900024 0.299988 4.40003 0.299988 8.80003V46.5C0.299988 50.8 3.79998 54.4 8.19998 54.4H55.6C59.9 54.4 63.5 50.9 63.5 46.5V8.80003C63.4 4.40003 59.9 0.900024 55.6 0.900024ZM61.4 46.4C61.4 49.6 58.8 52.3 55.5 52.3H8.09998C4.89998 52.3 2.19998 49.7 2.19998 46.4V8.70003C2.19998 5.50003 4.79998 2.80003 8.09998 2.80003H55.5C58.7 2.80003 61.4 5.40003 61.4 8.70003V46.4Z" fill="#4770FF"/>
<path d="M18.9 7.30005C18.9 6.70005 18.5 6.30005 17.9 6.30005H9.79996C7.39996 6.30005 5.39996 8.30004 5.39996 10.7V32.6001C5.39996 33.2001 5.79996 33.6001 6.39996 33.6001C6.99996 33.6001 7.39996 33.2001 7.39996 32.6001V10.7C7.39996 9.40004 8.49996 8.30005 9.79996 8.30005H17.9C18.5 8.30005 18.9 7.80005 18.9 7.30005Z" fill="#4770FF"/>
<path d="M31.9 36.5C38.7 36.5 44.3 30.9 44.3 24.1C44.3 17.3 38.7 11.7 31.9 11.7C25.1 11.7 19.5 17.3 19.5 24.1C19.5 30.9 25 36.5 31.9 36.5ZM31.9 13.7C37.6 13.7 42.3 18.4 42.3 24.1C42.3 29.8 37.6 34.5 31.9 34.5C26.2 34.5 21.5 29.8 21.5 24.1C21.5 18.4 26.2 13.7 31.9 13.7Z" fill="#4770FF"/>
<path d="M52.8 44.1H18.9V42.6C18.9 42 18.5 41.6 17.9 41.6C17.3 41.6 16.9 42 16.9 42.6V44.1H11C10.4 44.1 10 44.5 10 45.1C10 45.7 10.4 46.1 11 46.1H16.9V47.6C16.9 48.2 17.3 48.6 17.9 48.6C18.5 48.6 18.9 48.2 18.9 47.6V46.1H52.8C53.4 46.1 53.8 45.7 53.8 45.1C53.8 44.5 53.3 44.1 52.8 44.1Z" fill="#4770FF"/>
<path d="M28 30.5C28.4 30.7 28.8 30.8 29.3 30.8C29.7 30.8 30.2 30.7 30.6 30.5L37.8 26.3C38.6 25.8 39.1 25 39.1 24.1C39.1 23.2 38.6 22.4 37.8 21.9L30.6 17.7C29.8 17.2 28.9 17.2 28.1 17.7C27.3 18.2 26.8 19 26.8 19.9V28.2C26.7 29.2 27.2 30 28 30.5ZM28.7 19.9C28.7 19.6 28.9 19.5 29 19.4C29 19.4 29.1 19.3 29.3 19.3C29.4 19.3 29.5 19.3 29.6 19.4L36.8 23.6C37 23.7 37.1 24 37.1 24.1C37.1 24.2 37.1 24.4 36.8 24.6L29.6 28.8C29.4 28.9 29.1 28.8 29.1 28.8C29.1 28.8 28.8 28.6 28.8 28.3V19.9H28.7Z" fill="#4770FF"/>
</svg>
