<svg width="48" height="48" viewBox="0 0 48 48" fill="none" xmlns="http://www.w3.org/2000/svg">
<rect x="7" y="8" width="34" height="32" fill="#D9D9D9"/>
<path d="M29.952 37.509L30.0763 37.6488L30.2455 37.5689C36.2103 34.7516 38.0827 29.5475 38.506 27.5083L38.6799 26.6709L38.0824 27.2828C37.0061 28.3851 35.8976 29.4675 34.8681 30.0871C34.3546 30.3962 33.8818 30.5768 33.4586 30.6C33.0763 30.6209 32.7215 30.5146 32.3935 30.2296L32.3909 29.9777L32.381 28.9995C32.3728 28.1753 32.3619 27.0413 32.3509 25.8018C32.3291 23.3225 32.3073 20.4227 32.3073 18.7369C32.3073 16.5461 33.3475 14.6193 34.4077 13.2272C34.9361 12.5333 35.4649 11.9783 35.8613 11.5971C36.0594 11.4066 36.224 11.2599 36.3386 11.1612C36.3959 11.1119 36.4406 11.0746 36.4707 11.0499L36.5045 11.0224L36.5127 11.0159L36.5146 11.0144L36.5149 11.0142L36.5149 11.0141L36.5147 11.0138L36.3165 10.5715C33.9176 10.9988 31.0236 11.8575 27.9604 14.8636L27.9595 14.8645C27.7364 15.0857 27.5227 15.3157 27.3188 15.5545C26.672 15.1273 25.9671 14.9726 25.4149 14.9254C25.1094 14.8993 24.8465 14.9058 24.6591 14.9188C24.5652 14.9254 24.4899 14.9336 24.4373 14.9403C24.411 14.9437 24.3903 14.9467 24.3757 14.9489L24.3585 14.9517L24.3535 14.9525L24.3519 14.9528L24.3513 14.9529L24.3511 14.9529C24.351 14.9529 24.3509 14.953 24.3945 15.1991L24.3509 14.953L23.6523 15.0767L24.2741 15.4182C24.6752 15.6385 25.0985 16.0857 25.423 16.6353C25.7468 17.1836 25.9531 17.8016 25.9531 18.3435V30.0126C25.8981 30.0585 25.818 30.1239 25.7173 30.2024C25.513 30.3616 25.2255 30.5737 24.8922 30.7853C24.2126 31.2169 23.3918 31.6145 22.7085 31.6145L22.7066 31.6145C22.4037 31.6168 22.1045 31.5466 21.834 31.4097C21.5636 31.2728 21.33 31.0734 21.1528 30.8279L21.1529 30.8278L21.1486 30.8222C21.0512 30.695 20.9689 30.5568 20.9035 30.4106V15.9026V15.3723L20.4944 15.7098C20.4171 15.7736 20.2766 15.8461 20.1068 15.8803C19.9395 15.914 19.7619 15.9069 19.6013 15.836C19.3014 15.7036 18.9344 15.2809 18.9344 14.0569C18.9344 12.6009 19.9948 10.8063 21.948 9.69347L21.7866 9.22911C18.9789 9.65734 16.3492 10.8703 14.2012 12.7282C12.5688 14.1387 11.2632 15.8882 10.3753 17.8544C9.48735 19.8206 9.03803 21.9565 9.05901 24.1142L9.54693 24.1879L9.54709 24.188L9.5471 24.188L9.54712 24.1879L9.54727 24.1874L9.54797 24.1853L9.55096 24.1761L9.5632 24.1389C9.57411 24.1061 9.59047 24.0575 9.61201 23.9953C9.65509 23.871 9.71885 23.6923 9.80114 23.4763C9.9659 23.0438 10.204 22.4643 10.4982 21.873C10.7932 21.2801 11.1403 20.684 11.5209 20.2136C11.907 19.7366 12.2996 19.4238 12.6772 19.3367L12.6772 19.3369L12.6846 19.3349C12.9152 19.2743 13.1569 19.2682 13.3902 19.3175C13.6238 19.3668 13.8423 19.4697 14.0288 19.6185L14.029 19.6187C14.2155 19.7672 14.3644 19.9573 14.4644 20.174C14.5643 20.3907 14.6123 20.6276 14.6043 20.8655L14.6041 20.8655V20.874V31.6613C14.6041 32.1503 14.4498 32.4002 14.2694 32.5367C14.0775 32.6819 13.807 32.7366 13.5087 32.7321C13.0888 32.702 12.674 32.6237 12.2724 32.4985L11.5427 32.271L11.9969 32.8857C13.3646 34.7366 15.1418 36.2465 17.1895 37.2968C19.2372 38.3472 21.5004 38.9097 23.8016 38.9406L23.9075 38.942L23.9822 38.8669L27.7717 35.0578L29.952 37.509ZM47.75 24C47.75 37.1167 37.1167 47.75 24 47.75C10.8833 47.75 0.25 37.1167 0.25 24C0.25 10.8833 10.8833 0.25 24 0.25C37.1167 0.25 47.75 10.8833 47.75 24ZM26.038 29.9405C26.038 29.9405 26.0381 29.9405 26.038 29.9405L26.038 29.9405Z" fill="black" stroke="white" stroke-width="0.5"/>
</svg>
