<svg width="65" height="64" viewBox="0 0 65 64" fill="none" xmlns="http://www.w3.org/2000/svg">
<mask id="mask0_11_391" style="mask-type:luminance" maskUnits="userSpaceOnUse" x="0" y="0" width="65" height="64">
<path d="M64.5 0H0.5V64H64.5V0Z" fill="white"/>
</mask>
<g mask="url(#mask0_11_391)">
<path d="M9.5 9H11.5V13H9.5V9Z" fill="#4770FF"/>
<path d="M9.5 17H11.5V21H9.5V17Z" fill="#4770FF"/>
<path d="M4.5 14H8.5V16H4.5V14Z" fill="#4770FF"/>
<path d="M12.5 14H16.5V16H12.5V14Z" fill="#4770FF"/>
<path d="M56.5 22H58.5V24H56.5V22Z" fill="#4770FF"/>
<path d="M56.5 18H58.5V20H56.5V18Z" fill="#4770FF"/>
<path d="M54.5 20H56.5V22H54.5V20Z" fill="#4770FF"/>
<path d="M58.5 20H60.5V22H58.5V20Z" fill="#4770FF"/>
<path d="M54.1 30.1L56.1 29.1L57 30.9L55 31.9L54.1 30.1Z" fill="#4770FF"/>
<path d="M7.09998 31.9L7.99997 30.1L9.99997 31.1L9.09998 32.9L7.09998 31.9Z" fill="#4770FF"/>
<path d="M43.5 33.7L42.1 32.3C42.4 32 42.5 31.7 42.5 31.3C42.5 30.9 42.4 30.6 42.1 30.3C41.6 29.8 40.7 29.8 40.2 30.3L38.8 28.9C40.1 27.6 42.2 27.6 43.5 28.9C44.8 30.3 44.8 32.4 43.5 33.7Z" fill="#4770FF"/>
<path d="M61.5 4H58.5V6H61.5C62.1 6 62.5 6.4 62.5 7V36H51.8C53.3 32.8 52.2 29 49.2 27.1C49.8 24.7 49.3 22.2 47.9 20.2C46.4 18.2 44.1 17.1 41.7 17C40.1 13.4 36.5 11 32.5 11C28.5 11 24.9 13.4 23.3 17C20.8 17.1 18.5 18.2 17.1 20.2C15.6 22.2 15.1 24.7 15.8 27.1C12.8 29 11.7 32.8 13.2 36H2.5V7C2.5 6.4 2.9 6 3.5 6H6.5V4H3.5C1.8 4 0.5 5.3 0.5 7V47C0.5 48.7 1.8 50 3.5 50H24.5V55C24.5 56.7 23.2 58 21.5 58H16.5V64H48.5V58H43.5C41.8 58 40.5 56.7 40.5 55V50H61.5C63.2 50 64.5 48.7 64.5 47V7C64.5 5.3 63.2 4 61.5 4ZM19.5 28V26C18.9 26 18.2 26.1 17.6 26.3C17.3 24.7 17.6 23 18.6 21.6C19.6 20.2 21 19.3 22.7 19.1C22.6 19.7 22.5 20.4 22.5 21H24.5C24.5 16.6 28.1 13 32.5 13C36.9 13 40.5 16.6 40.5 21H42.5C42.5 20.3 42.4 19.7 42.3 19.1C44 19.3 45.4 20.2 46.4 21.6C47.4 23 47.7 24.7 47.4 26.3C46.8 26.1 46.2 26 45.5 26V28C48.3 28 50.5 30.2 50.5 33C50.5 34.1 50.1 35.1 49.5 36H15.6C14.9 35.1 14.6 34.1 14.6 33C14.5 30.2 16.8 28 19.5 28ZM46.5 60V62H18.5V60H46.5ZM32.5 56C34.2 56 35.5 54.7 35.5 53V50H38.5V55C38.5 56.1 38.9 57.1 39.5 58H25.4C26.1 57.1 26.4 56.1 26.4 55V50H29.4V53C29.5 54.7 30.9 56 32.5 56ZM31.5 53V50H33.5V53C33.5 53.6 33.1 54 32.5 54C31.9 54 31.5 53.6 31.5 53ZM62.5 47C62.5 47.6 62.1 48 61.5 48H3.5C2.9 48 2.5 47.6 2.5 47V38H62.5V47Z" fill="#4770FF"/>
<path d="M35.5 40H29.5V46H35.5V40ZM33.5 44H31.5V42H33.5V44Z" fill="#4770FF"/>
<path d="M25.3 32.3C24.3 31.3 24.3 29.7 25.3 28.7C26.3 27.7 27.9 27.7 28.9 28.7L30.3 27.3C29.8 26.8 29.3 26.5 28.7 26.3C29.1 24.3 30.9 22.9 33 23.1C35 23.3 36.6 25 36.6 27H38.6C38.6 23.9 36.2 21.3 33.1 21.1C30 20.9 27.2 23 26.7 26.1C25.7 26.2 24.7 26.6 23.9 27.4C22.1 29.2 22.1 32 23.9 33.8L25.3 32.3Z" fill="#4770FF"/>
<path d="M49.5 1H51.5V5H49.5V1Z" fill="#4770FF"/>
<path d="M49.5 9H51.5V13H49.5V9Z" fill="#4770FF"/>
<path d="M44.5 6H48.5V8H44.5V6Z" fill="#4770FF"/>
<path d="M52.5 6H56.5V8H52.5V6Z" fill="#4770FF"/>
<path d="M12.5 4H14.5V6H12.5V4Z" fill="#4770FF"/>
<path d="M12.5 0H14.5V2H12.5V0Z" fill="#4770FF"/>
<path d="M10.5 2H12.5V4H10.5V2Z" fill="#4770FF"/>
<path d="M14.5 2H16.5V4H14.5V2Z" fill="#4770FF"/>
<path d="M42.8 14.3L46.8 10.3L48.2 11.7L44.2 15.7L42.8 14.3Z" fill="#4770FF"/>
<path d="M30.5 4H32.5V9H30.5V4Z" fill="#4770FF"/>
<path d="M30.5 0H32.5V2H30.5V0Z" fill="#4770FF"/>
<path d="M51.8 25.3L53.8 23.3L55.2 24.7L53.2 26.7L51.8 25.3Z" fill="#4770FF"/>
<path d="M15.8 6.69998L17.2 5.29999L24.2 12.3L22.8 13.7L15.8 6.69998Z" fill="#4770FF"/>
<path d="M6.90002 24.8L8.10004 23.2L12.1 26.2L10.9 27.8L6.90002 24.8Z" fill="#4770FF"/>
<path d="M36.6 8.70001L37.6 5.70001L39.5 6.30002L38.5 9.30002L36.6 8.70001Z" fill="#4770FF"/>
</g>
</svg>
